<svg xmlns="http://www.w3.org/2000/svg" width="39.59" height="27.713" viewBox="0 0 39.59 27.713">
  <path id="Icon_awesome-users" data-name="Icon awesome-users" d="M5.938,14.127a3.959,3.959,0,1,0-3.959-3.959A3.963,3.963,0,0,0,5.938,14.127Zm27.713,0a3.959,3.959,0,1,0-3.959-3.959A3.963,3.963,0,0,0,33.651,14.127Zm1.979,1.979H31.672a3.947,3.947,0,0,0-2.79,1.151,9.048,9.048,0,0,1,4.646,6.767H37.61a1.977,1.977,0,0,0,1.979-1.979V20.065A3.963,3.963,0,0,0,35.631,16.106Zm-15.836,0a6.928,6.928,0,1,0-6.928-6.928A6.925,6.925,0,0,0,19.795,16.106Zm4.751,1.979h-.513a9.565,9.565,0,0,1-8.475,0h-.513a7.128,7.128,0,0,0-7.126,7.126v1.782a2.97,2.97,0,0,0,2.969,2.969H28.7a2.97,2.97,0,0,0,2.969-2.969V25.212A7.128,7.128,0,0,0,24.546,18.086Zm-13.838-.829a3.947,3.947,0,0,0-2.79-1.151H3.959A3.963,3.963,0,0,0,0,20.065v1.979a1.977,1.977,0,0,0,1.979,1.979H6.056A9.071,9.071,0,0,1,10.708,17.257Z" transform="translate(0 -2.25)" fill="#fff"/>
</svg>
